<mxfile host="65bd71144e">
    <diagram id="3wFd0FV0XbSYw5LFylhE" name="Page-1">
        <mxGraphModel dx="379" dy="324" grid="1" gridSize="10" guides="1" tooltips="1" connect="1" arrows="1" fold="1" page="1" pageScale="1" pageWidth="2336" pageHeight="1654" math="0" shadow="0">
            <root>
                <mxCell id="0"/>
                <mxCell id="1" parent="0"/>
                <mxCell id="2" value="order" style="swimlane;childLayout=stackLayout;resizeParent=1;resizeParentMax=0;horizontal=0;startSize=20;horizontalStack=0;fillColor=#60a917;strokeColor=#2D7600;fontColor=#ffffff;fontSize=13;" parent="1" vertex="1">
                    <mxGeometry x="83" y="80" width="2170" height="1025" as="geometry"/>
                </mxCell>
                <mxCell id="3" value="Customer" style="swimlane;startSize=20;horizontal=0;" parent="2" vertex="1">
                    <mxGeometry x="20" width="2150" height="270" as="geometry"/>
                </mxCell>
                <mxCell id="7" value="Postex" style="swimlane;startSize=20;horizontal=0;fillColor=#60a917;strokeColor=#2D7600;fontColor=#ffffff;" parent="2" vertex="1">
                    <mxGeometry x="20" y="270" width="2150" height="510" as="geometry"/>
                </mxCell>
                <mxCell id="32" value="" style="edgeStyle=none;html=1;" parent="7" source="30" target="31" edge="1">
                    <mxGeometry relative="1" as="geometry"/>
                </mxCell>
                <mxCell id="30" value="&lt;font style=&quot;font-size: 22px&quot;&gt;شروع&lt;/font&gt;" style="ellipse;whiteSpace=wrap;html=1;aspect=fixed;fillColor=#0050ef;strokeColor=#001DBC;fontColor=#ffffff;" parent="7" vertex="1">
                    <mxGeometry x="57" y="50" width="80" height="80" as="geometry"/>
                </mxCell>
                <mxCell id="36" value="" style="edgeStyle=none;html=1;" parent="7" source="31" target="35" edge="1">
                    <mxGeometry relative="1" as="geometry"/>
                </mxCell>
                <mxCell id="31" value="چک کردن در حال پردازش" style="whiteSpace=wrap;html=1;fontColor=#ffffff;strokeColor=#2D7600;fillColor=#60a917;" parent="7" vertex="1">
                    <mxGeometry x="197" y="60" width="120" height="60" as="geometry"/>
                </mxCell>
                <mxCell id="38" value="" style="edgeStyle=none;html=1;" parent="7" source="35" target="37" edge="1">
                    <mxGeometry relative="1" as="geometry"/>
                </mxCell>
                <mxCell id="40" value="" style="edgeStyle=none;html=1;" parent="7" source="35" target="39" edge="1">
                    <mxGeometry relative="1" as="geometry"/>
                </mxCell>
                <mxCell id="35" value="&lt;font style=&quot;font-size: 16px&quot;&gt;بارکد دارد&amp;nbsp;&lt;/font&gt;" style="rhombus;whiteSpace=wrap;html=1;fontColor=#ffffff;strokeColor=#6F0000;fillColor=#a20025;" parent="7" vertex="1">
                    <mxGeometry x="417" y="50" width="80" height="80" as="geometry"/>
                </mxCell>
                <mxCell id="42" value="" style="edgeStyle=none;html=1;" parent="7" source="37" target="41" edge="1">
                    <mxGeometry relative="1" as="geometry"/>
                </mxCell>
                <mxCell id="37" value="حذف SendToData&amp;nbsp;" style="whiteSpace=wrap;html=1;fontColor=#ffffff;strokeColor=#2D7600;fillColor=#60a917;" parent="7" vertex="1">
                    <mxGeometry x="397" y="170" width="120" height="60" as="geometry"/>
                </mxCell>
                <mxCell id="68" style="edgeStyle=orthogonalEdgeStyle;html=1;exitX=1;exitY=0.5;exitDx=0;exitDy=0;entryX=0.5;entryY=0;entryDx=0;entryDy=0;" parent="7" source="39" target="67" edge="1">
                    <mxGeometry relative="1" as="geometry"/>
                </mxCell>
                <mxCell id="39" value="تغییر وضعیت به تکمیل" style="whiteSpace=wrap;html=1;fontColor=#ffffff;strokeColor=#2D7600;fillColor=#60a917;" parent="7" vertex="1">
                    <mxGeometry x="557" y="60" width="120" height="60" as="geometry"/>
                </mxCell>
                <mxCell id="46" value="" style="edgeStyle=none;html=1;" parent="7" source="41" target="45" edge="1">
                    <mxGeometry relative="1" as="geometry"/>
                </mxCell>
                <mxCell id="41" value="تغییر وضعیت به تکمیل&amp;nbsp;" style="whiteSpace=wrap;html=1;fontColor=#ffffff;strokeColor=#2D7600;fillColor=#60a917;" parent="7" vertex="1">
                    <mxGeometry x="597" y="170" width="120" height="60" as="geometry"/>
                </mxCell>
                <mxCell id="50" value="" style="edgeStyle=none;html=1;" parent="7" source="45" target="49" edge="1">
                    <mxGeometry relative="1" as="geometry"/>
                </mxCell>
                <mxCell id="73" style="edgeStyle=orthogonalEdgeStyle;html=1;exitX=1;exitY=0.5;exitDx=0;exitDy=0;entryX=0.5;entryY=0;entryDx=0;entryDy=0;" parent="7" source="45" target="67" edge="1">
                    <mxGeometry relative="1" as="geometry"/>
                </mxCell>
                <mxCell id="45" value="بارکد صادر شد&amp;nbsp;" style="rhombus;whiteSpace=wrap;html=1;fontColor=#ffffff;strokeColor=#6F0000;fillColor=#a20025;" parent="7" vertex="1">
                    <mxGeometry x="817" y="160" width="80" height="80" as="geometry"/>
                </mxCell>
                <mxCell id="53" value="" style="edgeStyle=none;html=1;" parent="7" source="49" target="52" edge="1">
                    <mxGeometry relative="1" as="geometry"/>
                </mxCell>
                <mxCell id="49" value="&lt;font style=&quot;font-size: 17px&quot;&gt;بررسی مشکل&lt;/font&gt;" style="whiteSpace=wrap;html=1;fontColor=#ffffff;strokeColor=#2D7600;fillColor=#60a917;" parent="7" vertex="1">
                    <mxGeometry x="797" y="310" width="120" height="60" as="geometry"/>
                </mxCell>
                <mxCell id="55" value="" style="edgeStyle=none;html=1;" parent="7" source="52" target="54" edge="1">
                    <mxGeometry relative="1" as="geometry"/>
                </mxCell>
                <mxCell id="52" value="مشکل داخلی است" style="rhombus;whiteSpace=wrap;html=1;fontColor=#ffffff;strokeColor=#6F0000;fillColor=#a20025;" parent="7" vertex="1">
                    <mxGeometry x="1017" y="300" width="80" height="80" as="geometry"/>
                </mxCell>
                <mxCell id="57" value="" style="edgeStyle=none;html=1;" parent="7" source="54" target="56" edge="1">
                    <mxGeometry relative="1" as="geometry"/>
                </mxCell>
                <mxCell id="54" value="کنسل شفارش" style="whiteSpace=wrap;html=1;fontColor=#ffffff;strokeColor=#2D7600;fillColor=#60a917;" parent="7" vertex="1">
                    <mxGeometry x="1157" y="310" width="120" height="60" as="geometry"/>
                </mxCell>
                <mxCell id="56" value="&lt;font style=&quot;font-size: 15px&quot;&gt;BC1&lt;/font&gt;" style="shape=singleArrow;whiteSpace=wrap;html=1;arrowWidth=0.4;arrowSize=0.4;" parent="7" vertex="1">
                    <mxGeometry x="1377" y="310" width="113" height="60" as="geometry"/>
                </mxCell>
                <mxCell id="67" value="&lt;font style=&quot;font-size: 27px&quot;&gt;پایان&amp;nbsp;&lt;/font&gt;" style="ellipse;whiteSpace=wrap;html=1;aspect=fixed;fillColor=#0050ef;strokeColor=#001DBC;fontColor=#ffffff;" parent="7" vertex="1">
                    <mxGeometry x="1897" y="240" width="100" height="100" as="geometry"/>
                </mxCell>
                <mxCell id="70" value="بله" style="text;html=1;align=center;verticalAlign=middle;resizable=0;points=[];autosize=1;strokeColor=none;" parent="7" vertex="1">
                    <mxGeometry x="497" y="70" width="30" height="20" as="geometry"/>
                </mxCell>
                <mxCell id="72" value="خیر" style="text;html=1;align=center;verticalAlign=middle;resizable=0;points=[];autosize=1;strokeColor=none;" parent="7" vertex="1">
                    <mxGeometry x="457" y="130" width="30" height="20" as="geometry"/>
                </mxCell>
                <mxCell id="71" value="خیر" style="text;html=1;align=center;verticalAlign=middle;resizable=0;points=[];autosize=1;strokeColor=none;" parent="7" vertex="1">
                    <mxGeometry x="857" y="250" width="30" height="20" as="geometry"/>
                </mxCell>
                <mxCell id="23" value="Vendor" style="swimlane;startSize=20;horizontal=0;" parent="2" vertex="1">
                    <mxGeometry x="20" y="780" width="2150" height="245" as="geometry"/>
                </mxCell>
                <mxCell id="58" value="بررسی سایت گیت وی&amp;nbsp;" style="whiteSpace=wrap;html=1;fontColor=#ffffff;strokeColor=#2D7600;fillColor=#60a917;" parent="23" vertex="1">
                    <mxGeometry x="997" y="21" width="120" height="60" as="geometry"/>
                </mxCell>
                <mxCell id="66" value="" style="edgeStyle=elbowEdgeStyle;html=1;" parent="23" source="62" target="65" edge="1">
                    <mxGeometry relative="1" as="geometry"/>
                </mxCell>
                <mxCell id="62" value="قطع هست&amp;nbsp;" style="rhombus;whiteSpace=wrap;html=1;fontColor=#ffffff;strokeColor=#6F0000;fillColor=#a20025;" parent="23" vertex="1">
                    <mxGeometry x="1017" y="144" width="80" height="80" as="geometry"/>
                </mxCell>
                <mxCell id="63" value="" style="edgeStyle=none;html=1;" parent="23" source="58" target="62" edge="1">
                    <mxGeometry relative="1" as="geometry"/>
                </mxCell>
                <mxCell id="65" value="تا وصل شدن گیت وی بارکد صادر نمیشه&amp;nbsp;" style="whiteSpace=wrap;html=1;fontColor=#ffffff;strokeColor=#2D7600;fillColor=#60a917;" parent="23" vertex="1">
                    <mxGeometry x="1157" y="154" width="120" height="60" as="geometry"/>
                </mxCell>
                <mxCell id="59" value="" style="edgeStyle=none;html=1;" parent="2" source="52" target="58" edge="1">
                    <mxGeometry relative="1" as="geometry"/>
                </mxCell>
                <mxCell id="64" style="edgeStyle=elbowEdgeStyle;html=1;exitX=0;exitY=0.5;exitDx=0;exitDy=0;entryX=0.5;entryY=1;entryDx=0;entryDy=0;" parent="2" source="62" target="37" edge="1">
                    <mxGeometry relative="1" as="geometry">
                        <Array as="points">
                            <mxPoint x="497" y="750"/>
                        </Array>
                    </mxGeometry>
                </mxCell>
                <mxCell id="69" style="edgeStyle=orthogonalEdgeStyle;html=1;exitX=1;exitY=0.5;exitDx=0;exitDy=0;" parent="2" source="65" target="67" edge="1">
                    <mxGeometry relative="1" as="geometry"/>
                </mxCell>
                <mxCell id="74" value="بله" style="text;html=1;align=center;verticalAlign=middle;resizable=0;points=[];autosize=1;strokeColor=none;" parent="1" vertex="1">
                    <mxGeometry x="1030" y="520" width="30" height="20" as="geometry"/>
                </mxCell>
                <mxCell id="75" value="بله" style="text;html=1;align=center;verticalAlign=middle;resizable=0;points=[];autosize=1;strokeColor=none;" parent="1" vertex="1">
                    <mxGeometry x="1210" y="670" width="30" height="20" as="geometry"/>
                </mxCell>
                <mxCell id="76" value="خیر" style="text;html=1;align=center;verticalAlign=middle;resizable=0;points=[];autosize=1;strokeColor=none;" parent="1" vertex="1">
                    <mxGeometry x="1170" y="770" width="30" height="20" as="geometry"/>
                </mxCell>
                <mxCell id="77" value="بله" style="text;html=1;align=center;verticalAlign=middle;resizable=0;points=[];autosize=1;strokeColor=none;" parent="1" vertex="1">
                    <mxGeometry x="1220" y="1010" width="30" height="20" as="geometry"/>
                </mxCell>
                <mxCell id="78" value="خیر" style="text;html=1;align=center;verticalAlign=middle;resizable=0;points=[];autosize=1;strokeColor=none;" parent="1" vertex="1">
                    <mxGeometry x="1070" y="1020" width="30" height="20" as="geometry"/>
                </mxCell>
            </root>
        </mxGraphModel>
    </diagram>
</mxfile>